# xmcd
#
# Track frame offsets: 
#        183
#        14923
#        33428
#        50958
#        64470
#        73678
#        88630
#        104810
#        119143
#        128870
#
# Disc length: 1867 seconds
#
# Revision: 7
# Processed by: cddbd v1.5.2PL0 Copyright (c) Steve Scherf et al.
# Submitted via: ExactAudioCopy v1.3
#
DISCID=a607490a
DTITLE=k.d. Lang and The Reclines - Angel With a Lariat
DYEAR=1987
DGENRE=Country Rock
TTITLE0=Turn Me Round
TTITLE1=High Time for a Detour
TTITLE2=Diet of Strange Places
TTITLE3=Got the Bull by the Horns
TTITLE4=Watch Your Step Polka
TTITLE5=Rose Garden
TTITLE6=Tune Into My Wave
TTITLE7=Angel With a Lariat
TTITLE8=Pay Dirt
TTITLE9=Three Cigarettes in an Ashtray
EXTD=
EXTT0=
EXTT1=
EXTT2=
EXTT3=
EXTT4=
EXTT5=
EXTT6=
EXTT7=
EXTT8=
EXTT9=
PLAYORDER=
